<?xml version="1.0" encoding="utf-8"?>
<!-- Generator: Adobe Illustrator 26.4.1, SVG Export Plug-In . SVG Version: 6.00 Build 0)  -->
<svg version="1.1" id="Layer_1" xmlns="http://www.w3.org/2000/svg" xmlns:xlink="http://www.w3.org/1999/xlink" x="0px" y="0px"
	 viewBox="0 0 500 500" style="enable-background:new 0 0 500 500;" xml:space="preserve">
<style type="text/css">
	.st0{fill:#00924A;}
	.st1{fill:#231F20;}
	.st2{fill:#E93A3F;}
</style>
<g>
	<g>
		<path class="st0" d="M187.46,249.49c8.66,0,13.68-4.14,14.94-11.55l9.29-52.23c0.63-3.89,2.26-5.27,6.15-5.27h14.31
			c3.89,0,5.15,1.38,4.39,5.27l-9.42,53.1c-3.77,21.09-18.33,32.64-43.06,32.64c-24.86,0-35.65-15.69-31.89-36.79l8.66-48.96
			c0.75-3.89,2.26-5.27,6.28-5.27h14.19c4.02,0,5.15,1.38,4.39,5.27l-9.29,52.23C175.16,245.35,178.8,249.49,187.46,249.49z"/>
		<path class="st0" d="M315.89,213.71c-3.51,19.84-17.7,29.13-37.29,29.13h-15.32l-3.77,21.47c-0.75,3.89-2.26,5.27-6.28,5.27
			h-14.19c-4.02,0-5.15-1.38-4.39-5.27l13.81-78.59c0.75-3.89,2.26-5.27,6.28-5.27h34.65C308.99,180.44,319.28,193.75,315.89,213.71
			z M290.53,211.7c1-5.52-1.76-9.29-7.78-9.29h-12.3l-3.27,18.46h12.3C285.39,220.87,289.53,217.22,290.53,211.7z"/>
		<path class="st1" d="M393.23,185.71l-2.01,11.3c-0.75,4.02-2.38,5.4-6.28,5.4H351.8l-2.01,11.17h26.49c4.02,0,5.02,1.38,4.39,5.27
			l-2.01,11.3c-0.75,4.02-2.26,5.4-6.28,5.4h-26.49l-2.13,12.05h34.27c3.89,0,5.02,1.26,4.27,5.27l-2.01,11.42
			c-0.63,3.89-2.26,5.27-6.28,5.27h-53.61c-4.02,0-5.15-1.38-4.39-5.27l13.81-78.59c0.75-3.89,2.26-5.27,6.28-5.27h52.6
			C392.72,180.44,393.85,181.82,393.23,185.71z"/>
		<path class="st1" d="M478.34,185.46l-31.76,38.67l19.21,40.17c1.38,2.76,0.25,5.27-3.64,5.27H446.2c-6.53,0-7.91-0.38-9.67-4.64
			l-8.29-20.59l-15.07,20.59c-3.01,3.89-4.39,4.64-11.3,4.64h-15.57c-3.89,0-4.27-2.26-1.76-5.27l32.89-40.17l-17.83-38.67
			c-1.26-2.76-0.13-5.02,3.39-5.02h14.94c6.4,0,8.03,0.5,9.67,4.39l7.91,19.33l14.56-19.33c3.14-4.14,4.64-4.39,10.42-4.39h16.19
			C480.23,180.44,480.6,182.7,478.34,185.46z"/>
	</g>
	<g>
		<path class="st1" d="M152.63,301.71v-10.3h6.95v1.22h-5.58v3.19h4.83v1.22h-4.83v4.68H152.63z"/>
		<path class="st1" d="M170.13,300.79c-0.47,0.4-0.92,0.68-1.35,0.84c-0.43,0.16-0.9,0.25-1.39,0.25c-0.82,0-1.45-0.2-1.89-0.6
			c-0.44-0.4-0.66-0.91-0.66-1.54c0-0.36,0.08-0.7,0.25-1c0.17-0.3,0.38-0.54,0.65-0.73c0.27-0.18,0.57-0.32,0.91-0.41
			c0.25-0.07,0.62-0.13,1.12-0.19c1.02-0.12,1.77-0.27,2.26-0.43c0-0.17,0.01-0.28,0.01-0.33c0-0.52-0.12-0.88-0.36-1.09
			c-0.32-0.29-0.8-0.43-1.44-0.43c-0.59,0-1.03,0.1-1.32,0.31c-0.28,0.21-0.49,0.58-0.63,1.11l-1.24-0.17
			c0.11-0.53,0.3-0.96,0.55-1.28c0.26-0.33,0.63-0.58,1.12-0.75c0.49-0.18,1.05-0.26,1.69-0.26c0.64,0,1.15,0.08,1.55,0.22
			c0.4,0.15,0.69,0.34,0.88,0.57c0.19,0.23,0.32,0.51,0.39,0.86c0.04,0.21,0.06,0.6,0.06,1.17v1.69c0,1.17,0.03,1.92,0.08,2.23
			c0.05,0.31,0.16,0.61,0.32,0.9h-1.32C170.25,301.45,170.17,301.14,170.13,300.79z M170.02,297.97c-0.46,0.19-1.15,0.35-2.06,0.48
			c-0.52,0.08-0.89,0.16-1.1,0.25c-0.21,0.09-0.38,0.23-0.5,0.41c-0.12,0.18-0.18,0.38-0.18,0.6c0,0.34,0.13,0.62,0.38,0.84
			c0.26,0.22,0.63,0.34,1.12,0.34c0.49,0,0.92-0.11,1.3-0.32c0.38-0.21,0.66-0.5,0.84-0.87c0.14-0.29,0.2-0.71,0.2-1.26V297.97z"/>
		<path class="st1" d="M176.83,299.49l1.25-0.2c0.07,0.5,0.27,0.88,0.59,1.15c0.32,0.27,0.77,0.4,1.35,0.4
			c0.58,0,1.01-0.12,1.29-0.35c0.28-0.24,0.42-0.51,0.42-0.83c0-0.29-0.12-0.51-0.37-0.67c-0.17-0.11-0.6-0.26-1.29-0.43
			c-0.93-0.23-1.57-0.44-1.93-0.61c-0.36-0.17-0.63-0.41-0.82-0.71c-0.18-0.3-0.28-0.63-0.28-1c0-0.33,0.08-0.64,0.23-0.92
			c0.15-0.28,0.36-0.52,0.62-0.71c0.2-0.15,0.47-0.27,0.8-0.37c0.34-0.1,0.7-0.15,1.09-0.15c0.58,0,1.1,0.08,1.54,0.25
			c0.44,0.17,0.77,0.4,0.98,0.68c0.21,0.29,0.36,0.67,0.43,1.16l-1.24,0.17c-0.06-0.38-0.22-0.68-0.49-0.9
			c-0.27-0.21-0.65-0.32-1.14-0.32c-0.58,0-1,0.1-1.24,0.29c-0.25,0.19-0.37,0.42-0.37,0.67c0,0.16,0.05,0.31,0.15,0.44
			c0.1,0.14,0.26,0.25,0.48,0.34c0.13,0.05,0.5,0.15,1.12,0.32c0.9,0.24,1.52,0.43,1.87,0.59c0.35,0.15,0.63,0.37,0.83,0.66
			c0.2,0.29,0.3,0.65,0.3,1.08c0,0.42-0.12,0.82-0.37,1.19c-0.25,0.37-0.6,0.66-1.06,0.86c-0.46,0.2-0.99,0.31-1.57,0.31
			c-0.97,0-1.71-0.2-2.22-0.6C177.3,300.87,176.97,300.28,176.83,299.49z"/>
		<path class="st1" d="M191.37,300.58l0.18,1.12c-0.36,0.08-0.67,0.11-0.95,0.11c-0.46,0-0.81-0.07-1.07-0.22
			c-0.25-0.14-0.43-0.34-0.53-0.57c-0.1-0.24-0.16-0.73-0.16-1.49v-4.29h-0.93v-0.98h0.93v-1.85l1.26-0.76v2.61h1.27v0.98h-1.27
			v4.36c0,0.36,0.02,0.59,0.07,0.7c0.04,0.1,0.12,0.19,0.22,0.25c0.1,0.06,0.24,0.09,0.43,0.09
			C190.95,300.63,191.14,300.61,191.37,300.58z"/>
		<path class="st1" d="M197.01,301.71v-1.44h1.44v1.44c0,0.53-0.09,0.96-0.28,1.28c-0.19,0.33-0.48,0.58-0.89,0.75l-0.35-0.54
			c0.27-0.12,0.46-0.29,0.59-0.52c0.13-0.23,0.2-0.55,0.21-0.98H197.01z"/>
		<path class="st1" d="M213.01,301.71v-10.3h4.57c0.92,0,1.62,0.09,2.09,0.28c0.48,0.19,0.86,0.51,1.15,0.98
			c0.29,0.47,0.43,0.98,0.43,1.55c0,0.73-0.24,1.35-0.71,1.85c-0.47,0.5-1.2,0.82-2.19,0.96c0.36,0.17,0.63,0.34,0.82,0.51
			c0.4,0.37,0.77,0.82,1.13,1.37l1.79,2.8h-1.71l-1.36-2.14c-0.4-0.62-0.73-1.09-0.98-1.42c-0.26-0.33-0.49-0.56-0.69-0.69
			s-0.41-0.22-0.62-0.27c-0.15-0.03-0.41-0.05-0.76-0.05h-1.58v4.57H213.01z M214.37,295.96h2.93c0.62,0,1.11-0.06,1.46-0.19
			c0.35-0.13,0.62-0.33,0.8-0.62c0.18-0.28,0.27-0.59,0.27-0.92c0-0.49-0.18-0.89-0.53-1.2c-0.35-0.32-0.91-0.47-1.68-0.47h-3.26
			V295.96z"/>
		<path class="st1" d="M232.4,299.31l1.31,0.16c-0.21,0.76-0.59,1.36-1.15,1.78c-0.56,0.42-1.27,0.63-2.14,0.63
			c-1.09,0-1.96-0.34-2.59-1.01c-0.64-0.67-0.96-1.61-0.96-2.83c0-1.25,0.32-2.23,0.97-2.92c0.65-0.69,1.48-1.04,2.51-1.04
			c1,0,1.81,0.34,2.44,1.02c0.63,0.68,0.95,1.63,0.95,2.86c0,0.08,0,0.19-0.01,0.34h-5.56c0.05,0.82,0.28,1.45,0.69,1.88
			s0.94,0.65,1.56,0.65c0.46,0,0.86-0.12,1.19-0.36C231.94,300.23,232.2,299.84,232.4,299.31z M228.24,297.27h4.17
			c-0.06-0.63-0.21-1.1-0.48-1.41c-0.4-0.49-0.92-0.73-1.57-0.73c-0.58,0-1.07,0.19-1.46,0.58
			C228.51,296.1,228.29,296.62,228.24,297.27z"/>
		<path class="st1" d="M239.34,301.71v-10.3h1.26v10.3H239.34z"/>
		<path class="st1" d="M246.65,292.87v-1.45h1.27v1.45H246.65z M246.65,301.71v-7.46h1.27v7.46H246.65z"/>
		<path class="st1" d="M258.78,300.79c-0.47,0.4-0.92,0.68-1.35,0.84c-0.43,0.16-0.9,0.25-1.39,0.25c-0.82,0-1.45-0.2-1.89-0.6
			c-0.44-0.4-0.66-0.91-0.66-1.54c0-0.36,0.08-0.7,0.25-1c0.17-0.3,0.38-0.54,0.65-0.73c0.27-0.18,0.57-0.32,0.91-0.41
			c0.25-0.07,0.62-0.13,1.12-0.19c1.02-0.12,1.77-0.27,2.25-0.43c0-0.17,0.01-0.28,0.01-0.33c0-0.52-0.12-0.88-0.36-1.09
			c-0.32-0.29-0.8-0.43-1.44-0.43c-0.6,0-1.03,0.1-1.32,0.31c-0.28,0.21-0.49,0.58-0.63,1.11l-1.24-0.17
			c0.11-0.53,0.3-0.96,0.56-1.28c0.26-0.33,0.63-0.58,1.12-0.75c0.49-0.18,1.05-0.26,1.69-0.26c0.64,0,1.15,0.08,1.55,0.22
			c0.4,0.15,0.69,0.34,0.88,0.57c0.19,0.23,0.32,0.51,0.39,0.86c0.04,0.21,0.06,0.6,0.06,1.17v1.69c0,1.17,0.03,1.92,0.08,2.23
			c0.05,0.31,0.16,0.61,0.32,0.9h-1.32C258.9,301.45,258.81,301.14,258.78,300.79z M258.67,297.97c-0.46,0.19-1.15,0.35-2.06,0.48
			c-0.52,0.08-0.89,0.16-1.1,0.25c-0.22,0.09-0.38,0.23-0.5,0.41c-0.12,0.18-0.18,0.38-0.18,0.6c0,0.34,0.13,0.62,0.38,0.84
			c0.26,0.22,0.63,0.34,1.12,0.34c0.49,0,0.92-0.11,1.3-0.32c0.38-0.21,0.66-0.5,0.84-0.87c0.14-0.29,0.2-0.71,0.2-1.26V297.97z"/>
		<path class="st1" d="M267.15,301.71h-1.17v-10.3h1.26v3.67c0.53-0.67,1.22-1,2.04-1c0.46,0,0.89,0.09,1.3,0.28
			c0.41,0.19,0.75,0.44,1.01,0.78c0.27,0.33,0.47,0.74,0.62,1.21c0.15,0.47,0.22,0.98,0.22,1.52c0,1.28-0.32,2.27-0.95,2.96
			c-0.63,0.7-1.39,1.05-2.28,1.05c-0.88,0-1.57-0.37-2.07-1.1V301.71z M267.14,297.93c0,0.89,0.12,1.54,0.37,1.94
			c0.4,0.65,0.94,0.98,1.61,0.98c0.55,0,1.03-0.24,1.43-0.72c0.4-0.48,0.61-1.19,0.61-2.14c0-0.97-0.19-1.69-0.58-2.16
			c-0.39-0.46-0.85-0.69-1.4-0.69c-0.55,0-1.03,0.24-1.43,0.72C267.34,296.32,267.14,297.02,267.14,297.93z"/>
		<path class="st1" d="M278.04,301.71v-10.3h1.26v10.3H278.04z"/>
		<path class="st1" d="M290.44,299.31l1.31,0.16c-0.21,0.76-0.59,1.36-1.14,1.78c-0.56,0.42-1.27,0.63-2.14,0.63
			c-1.09,0-1.96-0.34-2.6-1.01c-0.64-0.67-0.96-1.61-0.96-2.83c0-1.25,0.32-2.23,0.97-2.92c0.65-0.69,1.48-1.04,2.51-1.04
			c1,0,1.81,0.34,2.44,1.02c0.63,0.68,0.95,1.63,0.95,2.86c0,0.08,0,0.19-0.01,0.34h-5.56c0.05,0.82,0.28,1.45,0.7,1.88
			s0.94,0.65,1.56,0.65c0.46,0,0.86-0.12,1.19-0.36C289.99,300.23,290.25,299.84,290.44,299.31z M286.29,297.27h4.17
			c-0.06-0.63-0.22-1.1-0.48-1.41c-0.4-0.49-0.93-0.73-1.57-0.73c-0.58,0-1.07,0.19-1.47,0.58
			C286.55,296.1,286.34,296.62,286.29,297.27z"/>
		<path class="st1" d="M311.37,300.5c-0.42,0.46-0.87,0.81-1.36,1.04c-0.49,0.23-1.02,0.35-1.59,0.35c-1.05,0-1.89-0.36-2.51-1.07
			c-0.5-0.58-0.75-1.23-0.75-1.94c0-0.64,0.21-1.21,0.61-1.72c0.41-0.51,1.02-0.96,1.84-1.35c-0.46-0.53-0.77-0.97-0.93-1.3
			c-0.16-0.33-0.23-0.65-0.23-0.96c0-0.62,0.24-1.16,0.73-1.61c0.49-0.46,1.1-0.69,1.83-0.69c0.7,0,1.28,0.22,1.72,0.65
			c0.45,0.43,0.67,0.95,0.67,1.55c0,0.98-0.65,1.81-1.94,2.51l1.85,2.35c0.21-0.41,0.38-0.89,0.49-1.43l1.31,0.28
			c-0.22,0.9-0.53,1.64-0.91,2.22c0.47,0.63,1.01,1.16,1.61,1.58l-0.85,1.01C312.44,301.62,311.91,301.14,311.37,300.5z
			 M310.58,299.5l-2.32-2.87c-0.68,0.41-1.15,0.78-1.38,1.13c-0.24,0.35-0.36,0.69-0.36,1.04c0,0.42,0.17,0.85,0.5,1.3
			c0.33,0.45,0.8,0.67,1.41,0.67c0.38,0,0.77-0.12,1.18-0.35C310.01,300.18,310.33,299.87,310.58,299.5z M308.8,295.13
			c0.55-0.32,0.9-0.61,1.06-0.85c0.16-0.24,0.24-0.51,0.24-0.81c0-0.35-0.11-0.64-0.33-0.86c-0.22-0.22-0.5-0.33-0.83-0.33
			c-0.34,0-0.63,0.11-0.85,0.33c-0.23,0.22-0.34,0.49-0.34,0.81c0,0.16,0.04,0.33,0.12,0.5c0.08,0.18,0.21,0.36,0.37,0.56
			L308.8,295.13z"/>
		<path class="st1" d="M334.74,298.1l1.36,0.34c-0.29,1.12-0.8,1.97-1.54,2.56c-0.74,0.59-1.65,0.88-2.72,0.88
			c-1.11,0-2.01-0.23-2.71-0.68c-0.7-0.45-1.22-1.11-1.59-1.96c-0.36-0.86-0.54-1.78-0.54-2.76c0-1.07,0.2-2.01,0.61-2.81
			c0.41-0.8,0.99-1.4,1.75-1.82c0.76-0.41,1.59-0.62,2.5-0.62c1.03,0,1.9,0.26,2.6,0.79c0.7,0.52,1.19,1.26,1.47,2.21l-1.34,0.32
			c-0.24-0.75-0.59-1.29-1.04-1.64c-0.45-0.34-1.03-0.51-1.71-0.51c-0.79,0-1.45,0.19-1.98,0.57c-0.53,0.38-0.91,0.89-1.12,1.53
			c-0.22,0.64-0.32,1.3-0.32,1.98c0,0.87,0.13,1.64,0.38,2.29c0.26,0.65,0.65,1.14,1.19,1.47c0.54,0.32,1.12,0.48,1.75,0.48
			c0.76,0,1.41-0.22,1.94-0.66C334.19,299.62,334.55,298.97,334.74,298.1z"/>
		<path class="st1" d="M341.23,297.98c0-1.38,0.38-2.41,1.15-3.07c0.64-0.55,1.42-0.83,2.35-0.83c1.03,0,1.86,0.34,2.52,1.01
			c0.65,0.67,0.98,1.6,0.98,2.79c0,0.96-0.14,1.71-0.43,2.26c-0.29,0.55-0.71,0.98-1.26,1.28c-0.55,0.31-1.15,0.46-1.8,0.46
			c-1.04,0-1.89-0.33-2.53-1C341.55,300.21,341.23,299.24,341.23,297.98z M342.52,297.98c0,0.95,0.21,1.67,0.63,2.15
			c0.42,0.47,0.94,0.71,1.57,0.71c0.63,0,1.15-0.24,1.57-0.72c0.42-0.48,0.63-1.21,0.63-2.19c0-0.92-0.21-1.62-0.63-2.1
			c-0.42-0.47-0.94-0.71-1.56-0.71c-0.63,0-1.16,0.24-1.57,0.71C342.73,296.31,342.52,297.03,342.52,297.98z"/>
		<path class="st1" d="M353.27,299.49l1.25-0.2c0.07,0.5,0.27,0.88,0.59,1.15c0.32,0.27,0.77,0.4,1.35,0.4
			c0.58,0,1.01-0.12,1.29-0.35c0.28-0.24,0.42-0.51,0.42-0.83c0-0.29-0.12-0.51-0.37-0.67c-0.17-0.11-0.61-0.26-1.29-0.43
			c-0.93-0.23-1.57-0.44-1.93-0.61c-0.36-0.17-0.63-0.41-0.82-0.71c-0.19-0.3-0.28-0.63-0.28-1c0-0.33,0.08-0.64,0.23-0.92
			c0.15-0.28,0.36-0.52,0.62-0.71c0.2-0.15,0.46-0.27,0.8-0.37c0.34-0.1,0.7-0.15,1.09-0.15c0.59,0,1.1,0.08,1.54,0.25
			c0.44,0.17,0.77,0.4,0.98,0.68c0.21,0.29,0.36,0.67,0.43,1.16l-1.24,0.17c-0.06-0.38-0.22-0.68-0.49-0.9
			c-0.27-0.21-0.65-0.32-1.14-0.32c-0.58,0-1,0.1-1.24,0.29c-0.25,0.19-0.37,0.42-0.37,0.67c0,0.16,0.05,0.31,0.15,0.44
			c0.1,0.14,0.26,0.25,0.49,0.34c0.13,0.05,0.5,0.15,1.12,0.32c0.89,0.24,1.52,0.43,1.87,0.59c0.35,0.15,0.63,0.37,0.83,0.66
			c0.2,0.29,0.3,0.65,0.3,1.08c0,0.42-0.12,0.82-0.37,1.19c-0.25,0.37-0.6,0.66-1.06,0.86c-0.46,0.2-0.99,0.31-1.57,0.31
			c-0.97,0-1.71-0.2-2.22-0.6C353.73,300.87,353.41,300.28,353.27,299.49z"/>
		<path class="st1" d="M367.8,300.58l0.18,1.12c-0.36,0.08-0.67,0.11-0.96,0.11c-0.46,0-0.81-0.07-1.07-0.22
			c-0.25-0.14-0.43-0.34-0.53-0.57c-0.1-0.24-0.15-0.73-0.15-1.49v-4.29h-0.93v-0.98h0.93v-1.85l1.26-0.76v2.61h1.27v0.98h-1.27
			v4.36c0,0.36,0.02,0.59,0.07,0.7c0.04,0.1,0.12,0.19,0.22,0.25c0.1,0.06,0.24,0.09,0.43,0.09
			C367.39,300.63,367.57,300.61,367.8,300.58z"/>
		<path class="st1" d="M372.62,298.62v-1.27h3.89v1.27H372.62z"/>
		<path class="st1" d="M387.09,299.31l1.31,0.16c-0.21,0.76-0.59,1.36-1.14,1.78c-0.56,0.42-1.27,0.63-2.14,0.63
			c-1.09,0-1.96-0.34-2.6-1.01c-0.64-0.67-0.96-1.61-0.96-2.83c0-1.25,0.32-2.23,0.97-2.92c0.65-0.69,1.48-1.04,2.51-1.04
			c1,0,1.81,0.34,2.44,1.02c0.63,0.68,0.95,1.63,0.95,2.86c0,0.08,0,0.19-0.01,0.34h-5.56c0.05,0.82,0.28,1.45,0.7,1.88
			s0.94,0.65,1.56,0.65c0.46,0,0.86-0.12,1.19-0.36C386.64,300.23,386.9,299.84,387.09,299.31z M382.94,297.27h4.17
			c-0.06-0.63-0.22-1.1-0.48-1.41c-0.4-0.49-0.93-0.73-1.57-0.73c-0.58,0-1.07,0.19-1.47,0.58
			C383.2,296.1,382.98,296.62,382.94,297.27z"/>
		<path class="st1" d="M394.36,301.71v-6.48h-1.12v-0.98h1.12v-0.79c0-0.5,0.04-0.87,0.13-1.12c0.12-0.33,0.34-0.59,0.64-0.8
			c0.31-0.2,0.74-0.31,1.29-0.31c0.35,0,0.75,0.04,1.18,0.13l-0.19,1.1c-0.26-0.05-0.51-0.07-0.74-0.07c-0.38,0-0.65,0.08-0.81,0.24
			c-0.16,0.16-0.24,0.47-0.24,0.92v0.69h1.45v0.98h-1.45v6.48H394.36z"/>
		<path class="st1" d="M402.17,301.71v-6.48h-1.12v-0.98h1.12v-0.79c0-0.5,0.04-0.87,0.13-1.12c0.12-0.33,0.34-0.59,0.64-0.8
			c0.31-0.2,0.74-0.31,1.29-0.31c0.35,0,0.75,0.04,1.18,0.13l-0.19,1.1c-0.26-0.05-0.51-0.07-0.74-0.07c-0.38,0-0.65,0.08-0.81,0.24
			c-0.16,0.16-0.24,0.47-0.24,0.92v0.69h1.45v0.98h-1.45v6.48H402.17z"/>
		<path class="st1" d="M415.05,299.31l1.31,0.16c-0.21,0.76-0.59,1.36-1.14,1.78c-0.56,0.42-1.27,0.63-2.14,0.63
			c-1.09,0-1.96-0.34-2.6-1.01c-0.64-0.67-0.96-1.61-0.96-2.83c0-1.25,0.32-2.23,0.97-2.92c0.65-0.69,1.48-1.04,2.51-1.04
			c1,0,1.81,0.34,2.44,1.02c0.63,0.68,0.95,1.63,0.95,2.86c0,0.08,0,0.19-0.01,0.34h-5.56c0.05,0.82,0.28,1.45,0.7,1.88
			s0.94,0.65,1.56,0.65c0.46,0,0.86-0.12,1.19-0.36C414.6,300.23,414.86,299.84,415.05,299.31z M410.9,297.27h4.17
			c-0.06-0.63-0.22-1.1-0.48-1.41c-0.4-0.49-0.93-0.73-1.57-0.73c-0.58,0-1.07,0.19-1.47,0.58
			C411.16,296.1,410.94,296.62,410.9,297.27z"/>
		<path class="st1" d="M426.89,298.98l1.24,0.16c-0.14,0.86-0.48,1.53-1.04,2.01c-0.56,0.48-1.25,0.73-2.06,0.73
			c-1.02,0-1.84-0.33-2.46-1c-0.62-0.67-0.93-1.62-0.93-2.87c0-0.81,0.13-1.51,0.4-2.11c0.27-0.6,0.67-1.06,1.22-1.36
			c0.55-0.3,1.14-0.45,1.78-0.45c0.81,0,1.47,0.21,1.99,0.62c0.52,0.41,0.85,0.99,0.99,1.74l-1.23,0.19
			c-0.12-0.5-0.32-0.88-0.62-1.13c-0.3-0.25-0.66-0.38-1.08-0.38c-0.64,0-1.15,0.23-1.55,0.68c-0.4,0.46-0.6,1.18-0.6,2.17
			c0,1,0.19,1.73,0.58,2.18s0.89,0.68,1.5,0.68c0.5,0,0.91-0.15,1.24-0.46C426.59,300.08,426.8,299.61,426.89,298.98z"/>
		<path class="st1" d="M436.05,300.58l0.18,1.12c-0.36,0.08-0.67,0.11-0.96,0.11c-0.46,0-0.81-0.07-1.07-0.22
			c-0.25-0.14-0.43-0.34-0.53-0.57c-0.1-0.24-0.15-0.73-0.15-1.49v-4.29h-0.93v-0.98h0.93v-1.85l1.26-0.76v2.61h1.27v0.98h-1.27
			v4.36c0,0.36,0.02,0.59,0.07,0.7c0.04,0.1,0.12,0.19,0.22,0.25c0.1,0.06,0.24,0.09,0.43,0.09
			C435.64,300.63,435.82,300.61,436.05,300.58z"/>
		<path class="st1" d="M441.37,292.87v-1.45h1.27v1.45H441.37z M441.37,301.71v-7.46h1.27v7.46H441.37z"/>
		<path class="st1" d="M450.71,301.71l-2.84-7.46h1.34l1.6,4.47c0.17,0.48,0.33,0.98,0.48,1.5c0.11-0.39,0.27-0.86,0.47-1.42
			l1.66-4.55h1.3l-2.82,7.46H450.71z"/>
		<path class="st1" d="M465.01,299.31l1.31,0.16c-0.21,0.76-0.59,1.36-1.14,1.78c-0.56,0.42-1.27,0.63-2.14,0.63
			c-1.09,0-1.96-0.34-2.6-1.01c-0.64-0.67-0.96-1.61-0.96-2.83c0-1.25,0.32-2.23,0.97-2.92c0.65-0.69,1.48-1.04,2.51-1.04
			c1,0,1.81,0.34,2.44,1.02c0.63,0.68,0.95,1.63,0.95,2.86c0,0.08,0,0.19-0.01,0.34h-5.56c0.05,0.82,0.28,1.45,0.7,1.88
			s0.94,0.65,1.56,0.65c0.46,0,0.86-0.12,1.19-0.36C464.56,300.23,464.82,299.84,465.01,299.31z M460.86,297.27h4.17
			c-0.06-0.63-0.22-1.1-0.48-1.41c-0.4-0.49-0.93-0.73-1.57-0.73c-0.58,0-1.07,0.19-1.47,0.58
			C461.12,296.1,460.9,296.62,460.86,297.27z"/>
	</g>
	<g>
		<path class="st0" d="M83.16,364.54c-10.51-7.17-43.01-31.31-56.89-76.5C6.97,225.15,39.79,173.73,44.16,167.13
			c4.36-6.57,39.82-58.16,107.24-63.94c61.49-5.27,102.98,31.56,109.67,37.71C199.7,102.4,119.04,115.2,73.5,169.54
			C26.25,225.93,29.92,311.39,83.16,364.54z"/>
		<path class="st2" d="M249.86,389.39c-8.65,3.05-58.88,19.83-110.1-7.25c-44.26-23.4-70.43-69.6-71.79-116.31
			c-1.56-53.72,30.28-89.39,35.2-94.74c27.45-29.78,60.5-38.12,72.48-40.55c-67.48,30.29-99.51,107.08-75.58,172.22
			C121.65,361.49,184.29,398.76,249.86,389.39z"/>
		<path class="st0" d="M120.91,292.49c4.51,9.83,22.46,45.88,65.23,65.88c40.09,18.74,77.04,11.72,91.37,8.04
			c39.91-10.25,63.37-35.41,71.39-44.87c-7.73,6.14-59.74,46.01-129.88,32.68C160.59,343.13,128.41,302.51,120.91,292.49z"/>
	</g>
</g>
</svg>
