<?xml version="1.0" encoding="utf-8"?>
<!-- Generator: Adobe Illustrator 26.4.1, SVG Export Plug-In . SVG Version: 6.00 Build 0)  -->
<svg version="1.1" id="Layer_1" xmlns="http://www.w3.org/2000/svg" xmlns:xlink="http://www.w3.org/1999/xlink" x="0px" y="0px"
	 viewBox="0 0 500 500" style="enable-background:new 0 0 500 500;" xml:space="preserve">
<style type="text/css">
	.st0{fill:#00924A;}
	.st1{fill:#FFFFFF;}
	.st2{fill:#E93A3F;}
</style>
<g>
	<g>
		<path class="st0" d="M187.57,249.49c8.65,0,13.66-4.14,14.91-11.53l9.27-52.14c0.63-3.89,2.26-5.26,6.14-5.26h14.29
			c3.89,0,5.14,1.38,4.39,5.26l-9.4,53.01c-3.76,21.05-18.3,32.59-42.99,32.59c-24.81,0-35.59-15.67-31.83-36.72l8.65-48.88
			c0.75-3.89,2.26-5.26,6.27-5.26h14.16c4.01,0,5.14,1.38,4.39,5.26l-9.27,52.14C175.29,245.35,178.92,249.49,187.57,249.49z"/>
		<path class="st0" d="M315.78,213.77c-3.51,19.8-17.67,29.08-37.22,29.08h-15.29l-3.76,21.43c-0.75,3.89-2.26,5.26-6.27,5.26
			h-14.16c-4.01,0-5.14-1.38-4.39-5.26l13.78-78.45c0.75-3.89,2.26-5.26,6.27-5.26h34.59C308.88,180.56,319.16,193.85,315.78,213.77
			z M290.46,211.77c1-5.51-1.75-9.27-7.77-9.27h-12.28l-3.26,18.42h12.28C285.32,220.92,289.46,217.28,290.46,211.77z"/>
		<path class="st1" d="M392.98,185.82l-2.01,11.28c-0.75,4.01-2.38,5.39-6.27,5.39h-33.09l-2.01,11.15h26.44
			c4.01,0,5.01,1.38,4.39,5.26l-2,11.28c-0.75,4.01-2.26,5.39-6.27,5.39h-26.44l-2.13,12.03h34.21c3.89,0,5.01,1.25,4.26,5.26
			l-2,11.4c-0.63,3.89-2.26,5.26-6.27,5.26h-53.51c-4.01,0-5.14-1.38-4.39-5.26l13.78-78.45c0.75-3.89,2.26-5.26,6.27-5.26h52.51
			C392.48,180.56,393.6,181.94,392.98,185.82z"/>
		<path class="st1" d="M477.95,185.57l-31.71,38.6l19.17,40.1c1.38,2.76,0.25,5.26-3.63,5.26h-15.92c-6.52,0-7.89-0.38-9.65-4.64
			l-8.27-20.55l-15.04,20.55c-3.01,3.89-4.39,4.64-11.28,4.64h-15.54c-3.89,0-4.26-2.26-1.75-5.26l32.84-40.1l-17.8-38.6
			c-1.25-2.76-0.13-5.01,3.38-5.01h14.91c6.39,0,8.02,0.5,9.65,4.39l7.89,19.3l14.54-19.3c3.13-4.14,4.64-4.39,10.4-4.39h16.17
			C479.83,180.56,480.2,182.82,477.95,185.57z"/>
	</g>
	<g>
		<path class="st1" d="M152.8,301.62v-10.28h6.93v1.21h-5.57v3.18h4.82v1.21h-4.82v4.67H152.8z"/>
		<path class="st1" d="M170.27,300.7c-0.47,0.4-0.92,0.68-1.35,0.84s-0.9,0.25-1.39,0.25c-0.82,0-1.45-0.2-1.89-0.6
			c-0.44-0.4-0.66-0.91-0.66-1.53c0-0.36,0.08-0.7,0.25-1c0.17-0.3,0.38-0.54,0.65-0.73c0.27-0.18,0.57-0.32,0.91-0.41
			c0.25-0.07,0.62-0.13,1.12-0.19c1.02-0.12,1.77-0.27,2.25-0.43c0-0.17,0.01-0.28,0.01-0.33c0-0.51-0.12-0.88-0.36-1.09
			c-0.32-0.29-0.8-0.43-1.44-0.43c-0.59,0-1.03,0.1-1.31,0.31c-0.28,0.21-0.49,0.58-0.63,1.11l-1.23-0.17
			c0.11-0.53,0.3-0.95,0.55-1.28c0.26-0.33,0.63-0.57,1.12-0.75c0.49-0.18,1.05-0.26,1.69-0.26c0.64,0,1.15,0.08,1.55,0.22
			c0.4,0.15,0.69,0.34,0.88,0.57c0.19,0.23,0.32,0.51,0.39,0.86c0.04,0.21,0.06,0.6,0.06,1.16v1.68c0,1.17,0.03,1.91,0.08,2.23
			c0.05,0.31,0.16,0.61,0.32,0.89h-1.32C170.39,301.36,170.3,301.05,170.27,300.7z M170.16,297.88c-0.46,0.19-1.15,0.35-2.06,0.48
			c-0.52,0.08-0.89,0.16-1.1,0.25c-0.21,0.09-0.38,0.23-0.5,0.41c-0.12,0.18-0.18,0.38-0.18,0.6c0,0.34,0.13,0.62,0.38,0.84
			c0.25,0.22,0.63,0.34,1.12,0.34c0.49,0,0.92-0.11,1.3-0.32c0.38-0.21,0.66-0.5,0.83-0.87c0.14-0.29,0.2-0.71,0.2-1.26V297.88z"/>
		<path class="st1" d="M176.96,299.4l1.25-0.2c0.07,0.5,0.27,0.88,0.59,1.15c0.32,0.27,0.77,0.4,1.34,0.4
			c0.58,0,1.01-0.12,1.29-0.35c0.28-0.24,0.42-0.51,0.42-0.83c0-0.28-0.12-0.51-0.37-0.67c-0.17-0.11-0.6-0.26-1.29-0.43
			c-0.93-0.23-1.57-0.44-1.92-0.61c-0.36-0.17-0.63-0.41-0.81-0.71c-0.18-0.3-0.28-0.63-0.28-1c0-0.33,0.08-0.64,0.23-0.92
			c0.15-0.28,0.36-0.52,0.62-0.7c0.2-0.15,0.46-0.27,0.8-0.37c0.34-0.1,0.7-0.15,1.09-0.15c0.58,0,1.1,0.08,1.54,0.25
			c0.44,0.17,0.77,0.4,0.98,0.68c0.21,0.29,0.35,0.67,0.43,1.15l-1.23,0.17c-0.06-0.38-0.22-0.68-0.49-0.9
			c-0.27-0.21-0.65-0.32-1.14-0.32c-0.58,0-0.99,0.1-1.24,0.29c-0.25,0.19-0.37,0.42-0.37,0.67c0,0.16,0.05,0.31,0.15,0.44
			c0.1,0.14,0.26,0.25,0.48,0.34c0.13,0.05,0.5,0.15,1.11,0.32c0.89,0.24,1.52,0.43,1.87,0.59c0.35,0.15,0.63,0.37,0.83,0.66
			c0.2,0.29,0.3,0.65,0.3,1.08c0,0.42-0.12,0.82-0.37,1.19c-0.24,0.37-0.6,0.66-1.06,0.86c-0.46,0.2-0.99,0.3-1.57,0.3
			c-0.97,0-1.71-0.2-2.21-0.6C177.42,300.79,177.1,300.19,176.96,299.4z"/>
		<path class="st1" d="M191.47,300.49l0.18,1.11c-0.36,0.08-0.67,0.11-0.95,0.11c-0.46,0-0.81-0.07-1.07-0.22
			c-0.25-0.14-0.43-0.34-0.53-0.57c-0.1-0.24-0.15-0.73-0.15-1.49v-4.28h-0.93v-0.98h0.93v-1.84l1.26-0.76v2.6h1.27v0.98h-1.27v4.35
			c0,0.36,0.02,0.59,0.07,0.69c0.04,0.1,0.12,0.19,0.22,0.25c0.1,0.06,0.24,0.09,0.43,0.09
			C191.05,300.54,191.24,300.53,191.47,300.49z"/>
		<path class="st1" d="M197.1,301.62v-1.44h1.44v1.44c0,0.53-0.09,0.95-0.28,1.28c-0.19,0.33-0.48,0.58-0.89,0.75l-0.35-0.54
			c0.27-0.12,0.46-0.29,0.59-0.52c0.13-0.23,0.2-0.55,0.21-0.98H197.1z"/>
		<path class="st1" d="M213.07,301.62v-10.28h4.56c0.92,0,1.61,0.09,2.09,0.28c0.48,0.19,0.86,0.51,1.14,0.98
			c0.29,0.47,0.43,0.98,0.43,1.55c0,0.73-0.24,1.34-0.71,1.84c-0.47,0.5-1.2,0.82-2.19,0.95c0.36,0.17,0.63,0.34,0.82,0.51
			c0.4,0.37,0.77,0.82,1.13,1.37l1.79,2.8h-1.71l-1.36-2.14c-0.4-0.62-0.72-1.09-0.98-1.42c-0.26-0.33-0.49-0.56-0.69-0.69
			c-0.2-0.13-0.41-0.22-0.62-0.27c-0.15-0.03-0.41-0.05-0.76-0.05h-1.58v4.56H213.07z M214.43,295.88h2.92
			c0.62,0,1.11-0.06,1.46-0.19c0.35-0.13,0.62-0.33,0.8-0.62c0.18-0.28,0.27-0.59,0.27-0.92c0-0.49-0.18-0.89-0.53-1.2
			c-0.35-0.31-0.91-0.47-1.67-0.47h-3.25V295.88z"/>
		<path class="st1" d="M232.43,299.22l1.3,0.16c-0.21,0.76-0.59,1.35-1.14,1.77c-0.56,0.42-1.27,0.63-2.13,0.63
			c-1.09,0-1.95-0.34-2.59-1.01c-0.64-0.67-0.96-1.61-0.96-2.82c0-1.25,0.32-2.22,0.97-2.92c0.64-0.69,1.48-1.04,2.51-1.04
			c1,0,1.81,0.34,2.44,1.02c0.63,0.68,0.95,1.63,0.95,2.86c0,0.08,0,0.19-0.01,0.34h-5.55c0.05,0.82,0.28,1.44,0.69,1.88
			c0.42,0.43,0.94,0.65,1.56,0.65c0.46,0,0.86-0.12,1.19-0.36C231.98,300.14,232.23,299.76,232.43,299.22z M228.28,297.18h4.16
			c-0.06-0.63-0.21-1.1-0.48-1.41c-0.4-0.49-0.92-0.73-1.56-0.73c-0.58,0-1.07,0.19-1.46,0.58
			C228.54,296.02,228.33,296.53,228.28,297.18z"/>
		<path class="st1" d="M239.36,301.62v-10.28h1.26v10.28H239.36z"/>
		<path class="st1" d="M246.65,292.79v-1.45h1.26v1.45H246.65z M246.65,301.62v-7.45h1.26v7.45H246.65z"/>
		<path class="st1" d="M258.76,300.7c-0.47,0.4-0.92,0.68-1.35,0.84s-0.9,0.25-1.39,0.25c-0.82,0-1.45-0.2-1.89-0.6
			c-0.44-0.4-0.66-0.91-0.66-1.53c0-0.36,0.08-0.7,0.25-1c0.17-0.3,0.38-0.54,0.65-0.73c0.27-0.18,0.57-0.32,0.91-0.41
			c0.25-0.07,0.62-0.13,1.12-0.19c1.02-0.12,1.77-0.27,2.25-0.43c0-0.17,0.01-0.28,0.01-0.33c0-0.51-0.12-0.88-0.36-1.09
			c-0.32-0.29-0.8-0.43-1.44-0.43c-0.59,0-1.03,0.1-1.32,0.31s-0.49,0.58-0.63,1.11l-1.23-0.17c0.11-0.53,0.3-0.95,0.56-1.28
			c0.26-0.33,0.63-0.57,1.11-0.75c0.49-0.18,1.05-0.26,1.69-0.26c0.64,0,1.15,0.08,1.55,0.22c0.4,0.15,0.69,0.34,0.88,0.57
			c0.19,0.23,0.32,0.51,0.39,0.86c0.04,0.21,0.06,0.6,0.06,1.16v1.68c0,1.17,0.03,1.91,0.08,2.23c0.05,0.31,0.16,0.61,0.32,0.89
			h-1.32C258.88,301.36,258.8,301.05,258.76,300.7z M258.66,297.88c-0.46,0.19-1.14,0.35-2.06,0.48c-0.52,0.08-0.89,0.16-1.1,0.25
			c-0.22,0.09-0.38,0.23-0.5,0.41c-0.12,0.18-0.18,0.38-0.18,0.6c0,0.34,0.13,0.62,0.38,0.84c0.26,0.22,0.63,0.34,1.12,0.34
			c0.49,0,0.92-0.11,1.3-0.32c0.38-0.21,0.66-0.5,0.83-0.87c0.14-0.29,0.2-0.71,0.2-1.26V297.88z"/>
		<path class="st1" d="M267.12,301.62h-1.17v-10.28h1.26v3.67c0.53-0.67,1.21-1,2.04-1c0.46,0,0.89,0.09,1.3,0.28
			s0.75,0.44,1.01,0.78c0.27,0.33,0.47,0.74,0.62,1.21c0.15,0.47,0.22,0.98,0.22,1.51c0,1.28-0.31,2.26-0.95,2.96
			c-0.63,0.7-1.39,1.04-2.27,1.04c-0.88,0-1.57-0.37-2.07-1.1V301.62z M267.11,297.84c0,0.89,0.12,1.54,0.37,1.93
			c0.4,0.65,0.93,0.97,1.61,0.97c0.55,0,1.03-0.24,1.43-0.72c0.4-0.48,0.6-1.19,0.6-2.14c0-0.97-0.19-1.69-0.58-2.15
			c-0.38-0.46-0.85-0.69-1.4-0.69c-0.55,0-1.03,0.24-1.43,0.72C267.31,296.24,267.11,296.94,267.11,297.84z"/>
		<path class="st1" d="M277.99,301.62v-10.28h1.26v10.28H277.99z"/>
		<path class="st1" d="M290.37,299.22l1.3,0.16c-0.2,0.76-0.59,1.35-1.14,1.77c-0.56,0.42-1.27,0.63-2.13,0.63
			c-1.09,0-1.95-0.34-2.59-1.01c-0.64-0.67-0.96-1.61-0.96-2.82c0-1.25,0.32-2.22,0.97-2.92c0.65-0.69,1.48-1.04,2.51-1.04
			c1,0,1.81,0.34,2.44,1.02s0.95,1.63,0.95,2.86c0,0.08,0,0.19-0.01,0.34h-5.55c0.05,0.82,0.28,1.44,0.69,1.88
			c0.42,0.43,0.94,0.65,1.56,0.65c0.46,0,0.86-0.12,1.19-0.36C289.92,300.14,290.18,299.76,290.37,299.22z M286.23,297.18h4.16
			c-0.06-0.63-0.22-1.1-0.48-1.41c-0.4-0.49-0.92-0.73-1.56-0.73c-0.58,0-1.07,0.19-1.46,0.58
			C286.49,296.02,286.27,296.53,286.23,297.18z"/>
		<path class="st1" d="M311.26,300.41c-0.42,0.46-0.87,0.81-1.36,1.04c-0.49,0.23-1.02,0.35-1.59,0.35c-1.05,0-1.89-0.36-2.5-1.07
			c-0.5-0.58-0.75-1.23-0.75-1.94c0-0.64,0.2-1.21,0.61-1.72c0.41-0.51,1.02-0.96,1.83-1.35c-0.46-0.53-0.77-0.97-0.93-1.3
			c-0.16-0.33-0.23-0.65-0.23-0.96c0-0.62,0.24-1.15,0.73-1.61c0.48-0.46,1.09-0.68,1.83-0.68c0.7,0,1.27,0.22,1.72,0.65
			c0.45,0.43,0.67,0.95,0.67,1.55c0,0.98-0.65,1.81-1.94,2.5l1.84,2.35c0.21-0.41,0.38-0.89,0.49-1.43l1.31,0.28
			c-0.22,0.9-0.53,1.64-0.91,2.22c0.47,0.63,1.01,1.15,1.61,1.58l-0.85,1C312.33,301.53,311.81,301.05,311.26,300.41z
			 M310.47,299.41l-2.31-2.87c-0.68,0.41-1.14,0.78-1.38,1.13c-0.24,0.35-0.36,0.69-0.36,1.03c0,0.42,0.17,0.85,0.5,1.3
			s0.8,0.67,1.41,0.67c0.38,0,0.77-0.12,1.17-0.35C309.91,300.09,310.23,299.79,310.47,299.41z M308.7,295.05
			c0.55-0.32,0.9-0.61,1.06-0.85c0.16-0.24,0.24-0.51,0.24-0.81c0-0.35-0.11-0.64-0.33-0.86c-0.22-0.22-0.5-0.33-0.83-0.33
			c-0.34,0-0.63,0.11-0.85,0.33c-0.23,0.22-0.34,0.49-0.34,0.81c0,0.16,0.04,0.33,0.12,0.5c0.08,0.18,0.2,0.36,0.37,0.56
			L308.7,295.05z"/>
		<path class="st1" d="M334.59,298.02l1.36,0.34c-0.29,1.12-0.8,1.97-1.54,2.56s-1.65,0.88-2.72,0.88c-1.11,0-2.01-0.23-2.7-0.68
			c-0.69-0.45-1.22-1.1-1.59-1.96c-0.36-0.85-0.54-1.77-0.54-2.75c0-1.07,0.2-2,0.61-2.8c0.41-0.8,0.99-1.4,1.75-1.82
			c0.76-0.41,1.59-0.62,2.49-0.62c1.03,0,1.89,0.26,2.59,0.79c0.7,0.52,1.19,1.26,1.47,2.21l-1.34,0.32
			c-0.24-0.75-0.58-1.29-1.04-1.63c-0.45-0.34-1.02-0.51-1.71-0.51c-0.79,0-1.45,0.19-1.98,0.57c-0.53,0.38-0.9,0.89-1.12,1.52
			c-0.22,0.64-0.32,1.3-0.32,1.97c0,0.87,0.13,1.64,0.38,2.29c0.26,0.65,0.65,1.14,1.19,1.46c0.54,0.32,1.12,0.48,1.75,0.48
			c0.76,0,1.41-0.22,1.93-0.66C334.05,299.54,334.41,298.88,334.59,298.02z"/>
		<path class="st1" d="M341.07,297.9c0-1.38,0.38-2.4,1.15-3.06c0.64-0.55,1.42-0.83,2.34-0.83c1.02,0,1.86,0.34,2.51,1.01
			c0.65,0.67,0.97,1.6,0.97,2.78c0,0.96-0.14,1.71-0.43,2.26c-0.29,0.55-0.71,0.98-1.25,1.28c-0.55,0.3-1.15,0.46-1.8,0.46
			c-1.04,0-1.89-0.33-2.53-1C341.39,300.12,341.07,299.16,341.07,297.9z M342.36,297.9c0,0.95,0.21,1.67,0.62,2.14
			c0.42,0.47,0.94,0.71,1.57,0.71c0.63,0,1.15-0.24,1.56-0.71c0.42-0.48,0.62-1.2,0.62-2.18c0-0.92-0.21-1.62-0.63-2.09
			c-0.42-0.47-0.94-0.71-1.56-0.71c-0.63,0-1.15,0.24-1.57,0.71C342.57,296.23,342.36,296.95,342.36,297.9z"/>
		<path class="st1" d="M353.09,299.4l1.25-0.2c0.07,0.5,0.27,0.88,0.58,1.15c0.32,0.27,0.77,0.4,1.34,0.4
			c0.58,0,1.01-0.12,1.29-0.35c0.28-0.24,0.42-0.51,0.42-0.83c0-0.28-0.12-0.51-0.37-0.67c-0.17-0.11-0.6-0.26-1.29-0.43
			c-0.93-0.23-1.57-0.44-1.92-0.61c-0.36-0.17-0.63-0.41-0.81-0.71c-0.19-0.3-0.28-0.63-0.28-1c0-0.33,0.08-0.64,0.23-0.92
			c0.15-0.28,0.36-0.52,0.62-0.7c0.2-0.15,0.46-0.27,0.8-0.37s0.7-0.15,1.09-0.15c0.58,0,1.1,0.08,1.54,0.25
			c0.44,0.17,0.77,0.4,0.98,0.68c0.21,0.29,0.36,0.67,0.43,1.15l-1.23,0.17c-0.06-0.38-0.22-0.68-0.49-0.9
			c-0.27-0.21-0.65-0.32-1.14-0.32c-0.58,0-0.99,0.1-1.24,0.29c-0.25,0.19-0.37,0.42-0.37,0.67c0,0.16,0.05,0.31,0.15,0.44
			c0.1,0.14,0.26,0.25,0.48,0.34c0.13,0.05,0.5,0.15,1.11,0.32c0.89,0.24,1.52,0.43,1.87,0.59c0.35,0.15,0.63,0.37,0.83,0.66
			c0.2,0.29,0.3,0.65,0.3,1.08c0,0.42-0.12,0.82-0.37,1.19c-0.25,0.37-0.6,0.66-1.06,0.86c-0.46,0.2-0.99,0.3-1.57,0.3
			c-0.97,0-1.71-0.2-2.21-0.6C353.55,300.79,353.23,300.19,353.09,299.4z"/>
		<path class="st1" d="M367.6,300.49l0.18,1.11c-0.36,0.08-0.67,0.11-0.95,0.11c-0.46,0-0.81-0.07-1.06-0.22
			c-0.25-0.14-0.43-0.34-0.53-0.57c-0.1-0.24-0.15-0.73-0.15-1.49v-4.28h-0.93v-0.98h0.93v-1.84l1.25-0.76v2.6h1.27v0.98h-1.27v4.35
			c0,0.36,0.02,0.59,0.07,0.69c0.04,0.1,0.12,0.19,0.22,0.25c0.1,0.06,0.24,0.09,0.43,0.09
			C367.18,300.54,367.37,300.53,367.6,300.49z"/>
		<path class="st1" d="M372.41,298.54v-1.27h3.88v1.27H372.41z"/>
		<path class="st1" d="M386.85,299.22l1.3,0.16c-0.2,0.76-0.59,1.35-1.14,1.77c-0.56,0.42-1.27,0.63-2.13,0.63
			c-1.09,0-1.95-0.34-2.59-1.01c-0.64-0.67-0.96-1.61-0.96-2.82c0-1.25,0.32-2.22,0.97-2.92c0.65-0.69,1.48-1.04,2.51-1.04
			c1,0,1.81,0.34,2.44,1.02c0.63,0.68,0.95,1.63,0.95,2.86c0,0.08,0,0.19-0.01,0.34h-5.55c0.05,0.82,0.28,1.44,0.69,1.88
			c0.42,0.43,0.94,0.65,1.56,0.65c0.46,0,0.86-0.12,1.19-0.36C386.4,300.14,386.66,299.76,386.85,299.22z M382.71,297.18h4.16
			c-0.06-0.63-0.22-1.1-0.48-1.41c-0.4-0.49-0.92-0.73-1.56-0.73c-0.58,0-1.07,0.19-1.46,0.58
			C382.97,296.02,382.75,296.53,382.71,297.18z"/>
		<path class="st1" d="M394.11,301.62v-6.46h-1.12v-0.98h1.12v-0.79c0-0.5,0.04-0.87,0.13-1.12c0.12-0.33,0.34-0.59,0.64-0.8
			c0.31-0.2,0.74-0.3,1.29-0.3c0.35,0,0.75,0.04,1.18,0.13l-0.19,1.1c-0.26-0.05-0.51-0.07-0.74-0.07c-0.38,0-0.65,0.08-0.81,0.24
			c-0.16,0.16-0.24,0.47-0.24,0.92v0.69h1.45v0.98h-1.45v6.46H394.11z"/>
		<path class="st1" d="M401.91,301.62v-6.46h-1.12v-0.98h1.12v-0.79c0-0.5,0.04-0.87,0.13-1.12c0.12-0.33,0.34-0.59,0.64-0.8
			c0.31-0.2,0.74-0.3,1.29-0.3c0.35,0,0.75,0.04,1.18,0.13l-0.19,1.1c-0.26-0.05-0.51-0.07-0.74-0.07c-0.38,0-0.65,0.08-0.81,0.24
			c-0.16,0.16-0.24,0.47-0.24,0.92v0.69h1.45v0.98h-1.45v6.46H401.91z"/>
		<path class="st1" d="M414.76,299.22l1.3,0.16c-0.2,0.76-0.59,1.35-1.14,1.77c-0.56,0.42-1.27,0.63-2.13,0.63
			c-1.09,0-1.95-0.34-2.59-1.01c-0.64-0.67-0.96-1.61-0.96-2.82c0-1.25,0.32-2.22,0.97-2.92c0.65-0.69,1.48-1.04,2.51-1.04
			c1,0,1.81,0.34,2.44,1.02c0.63,0.68,0.95,1.63,0.95,2.86c0,0.08,0,0.19-0.01,0.34h-5.55c0.05,0.82,0.28,1.44,0.69,1.88
			c0.42,0.43,0.94,0.65,1.56,0.65c0.46,0,0.86-0.12,1.19-0.36C414.31,300.14,414.57,299.76,414.76,299.22z M410.62,297.18h4.16
			c-0.06-0.63-0.22-1.1-0.48-1.41c-0.4-0.49-0.92-0.73-1.56-0.73c-0.58,0-1.07,0.19-1.46,0.58
			C410.88,296.02,410.66,296.53,410.62,297.18z"/>
		<path class="st1" d="M426.58,298.9l1.24,0.16c-0.14,0.86-0.48,1.52-1.04,2.01c-0.56,0.48-1.24,0.73-2.06,0.73
			c-1.02,0-1.84-0.33-2.46-1c-0.62-0.67-0.93-1.62-0.93-2.86c0-0.8,0.13-1.51,0.4-2.11c0.27-0.6,0.67-1.05,1.22-1.36
			c0.55-0.3,1.14-0.45,1.78-0.45c0.81,0,1.47,0.2,1.99,0.61c0.51,0.41,0.84,0.99,0.99,1.74l-1.23,0.19
			c-0.12-0.5-0.32-0.88-0.62-1.13c-0.3-0.25-0.66-0.38-1.08-0.38c-0.64,0-1.15,0.23-1.55,0.68c-0.4,0.46-0.6,1.18-0.6,2.16
			c0,1,0.19,1.73,0.57,2.18s0.88,0.68,1.5,0.68c0.49,0,0.91-0.15,1.24-0.46C426.28,299.99,426.49,299.53,426.58,298.9z"/>
		<path class="st1" d="M435.73,300.49l0.18,1.11c-0.36,0.08-0.67,0.11-0.95,0.11c-0.46,0-0.81-0.07-1.06-0.22
			c-0.25-0.14-0.43-0.34-0.53-0.57c-0.1-0.24-0.15-0.73-0.15-1.49v-4.28h-0.93v-0.98h0.93v-1.84l1.25-0.76v2.6h1.27v0.98h-1.27v4.35
			c0,0.36,0.02,0.59,0.07,0.69c0.04,0.1,0.12,0.19,0.22,0.25c0.1,0.06,0.24,0.09,0.43,0.09
			C435.31,300.54,435.5,300.53,435.73,300.49z"/>
		<path class="st1" d="M441.04,292.79v-1.45h1.26v1.45H441.04z M441.04,301.62v-7.45h1.26v7.45H441.04z"/>
		<path class="st1" d="M450.36,301.62l-2.83-7.45h1.33l1.6,4.46c0.17,0.48,0.33,0.98,0.48,1.5c0.11-0.39,0.27-0.86,0.47-1.42
			l1.65-4.54h1.3l-2.82,7.45H450.36z"/>
		<path class="st1" d="M464.64,299.22l1.3,0.16c-0.2,0.76-0.59,1.35-1.14,1.77c-0.56,0.42-1.27,0.63-2.13,0.63
			c-1.09,0-1.95-0.34-2.59-1.01c-0.64-0.67-0.96-1.61-0.96-2.82c0-1.25,0.32-2.22,0.97-2.92c0.65-0.69,1.48-1.04,2.51-1.04
			c1,0,1.81,0.34,2.44,1.02c0.63,0.68,0.95,1.63,0.95,2.86c0,0.08,0,0.19-0.01,0.34h-5.55c0.05,0.82,0.28,1.44,0.69,1.88
			c0.42,0.43,0.94,0.65,1.56,0.65c0.46,0,0.86-0.12,1.19-0.36C464.19,300.14,464.44,299.76,464.64,299.22z M460.49,297.18h4.16
			c-0.06-0.63-0.22-1.1-0.48-1.41c-0.4-0.49-0.92-0.73-1.56-0.73c-0.58,0-1.07,0.19-1.46,0.58
			C460.75,296.02,460.54,296.53,460.49,297.18z"/>
	</g>
	<g>
		<path class="st0" d="M83.45,364.34c-10.49-7.16-42.94-31.26-56.79-76.37C7.39,225.2,40.15,173.87,44.52,167.27
			c4.35-6.56,39.75-58.06,107.06-63.83c61.39-5.26,102.8,31.5,109.48,37.64c-61.27-38.43-141.79-25.65-187.25,28.6
			C26.63,225.97,30.3,311.28,83.45,364.34z"/>
		<path class="st2" d="M249.86,389.15c-8.63,3.04-58.78,19.8-109.91-7.24c-44.18-23.36-70.31-69.48-71.66-116.11
			c-1.55-53.63,30.22-89.24,35.14-94.57c27.4-29.73,60.4-38.06,72.35-40.48c-67.36,30.24-99.34,106.89-75.45,171.92
			C121.87,361.3,184.41,398.5,249.86,389.15z"/>
		<path class="st0" d="M121.14,292.42c4.5,9.82,22.42,45.8,65.12,65.76c40.02,18.71,76.9,11.7,91.21,8.03
			c39.84-10.23,63.26-35.35,71.27-44.79c-7.72,6.13-59.63,45.93-129.66,32.63C160.75,342.97,128.62,302.42,121.14,292.42z"/>
	</g>
</g>
</svg>
